<svg width="500" height="500" viewBox="0 0 500 500" fill="none" xmlns="http://www.w3.org/2000/svg">
<rect width="500" height="500" rx="10" fill="#F7DF1E"/>
<path d="M270.21 355.29L271.56 325.86H269.94L239.7 375.27H233.22L201.63 325.86H200.28L201.9 352.32V456H166.8V267H204.33L236.73 319.38H237.81L269.94 267H307.2V456H270.21V355.29ZM323.835 268.89C327.975 268.17 332.385 267.54 337.065 267C341.925 266.28 346.695 265.74 351.375 265.38C356.235 265.02 360.915 264.75 365.415 264.57C369.915 264.39 374.055 264.3 377.835 264.3C386.655 264.3 395.295 265.2 403.755 267C412.395 268.62 420.045 271.5 426.705 275.64C433.545 279.78 438.945 285.36 442.905 292.38C447.045 299.4 449.115 308.13 449.115 318.57C449.115 326.31 448.305 333.06 446.685 338.82C445.245 344.4 443.175 349.35 440.475 353.67C437.775 357.99 434.445 361.77 430.485 365.01C426.705 368.07 422.565 370.86 418.065 373.38L463.695 456H421.035L382.965 382.02H360.825V456H323.835V268.89ZM380.535 297.24C376.755 297.24 372.975 297.33 369.195 297.51C365.595 297.69 362.805 298.05 360.825 298.59V353.4H375.405C385.665 353.4 394.035 351.06 400.515 346.38C406.995 341.7 410.235 333.96 410.235 323.16C410.235 315.06 407.715 308.76 402.675 304.26C397.635 299.58 390.255 297.24 380.535 297.24Z" fill="black"/>
</svg>
