<svg width="500" height="500" viewBox="0 0 500 500" fill="none" xmlns="http://www.w3.org/2000/svg">
<rect width="500" height="500" rx="10" fill="#3178C6"/>
<path d="M272.21 361.29L273.56 331.86H271.94L241.7 381.27H235.22L203.63 331.86H202.28L203.9 358.32V462H168.8V273H206.33L238.73 325.38H239.81L271.94 273H309.2V462H272.21V361.29ZM325.835 274.89C329.975 274.17 334.385 273.54 339.065 273C343.925 272.28 348.695 271.74 353.375 271.38C358.235 271.02 362.915 270.75 367.415 270.57C371.915 270.39 376.055 270.3 379.835 270.3C388.655 270.3 397.295 271.2 405.755 273C414.395 274.62 422.045 277.5 428.705 281.64C435.545 285.78 440.945 291.36 444.905 298.38C449.045 305.4 451.115 314.13 451.115 324.57C451.115 332.31 450.305 339.06 448.685 344.82C447.245 350.4 445.175 355.35 442.475 359.67C439.775 363.99 436.445 367.77 432.485 371.01C428.705 374.07 424.565 376.86 420.065 379.38L465.695 462H423.035L384.965 388.02H362.825V462H325.835V274.89ZM382.535 303.24C378.755 303.24 374.975 303.33 371.195 303.51C367.595 303.69 364.805 304.05 362.825 304.59V359.4H377.405C387.665 359.4 396.035 357.06 402.515 352.38C408.995 347.7 412.235 339.96 412.235 329.16C412.235 321.06 409.715 314.76 404.675 310.26C399.635 305.58 392.255 303.24 382.535 303.24Z" fill="white"/>
</svg>
